<svg width="493" height="513" viewBox="0 0 493 513" fill="none" xmlns="http://www.w3.org/2000/svg">
<path fill-rule="evenodd" clip-rule="evenodd" d="M106 1.47279C104.35 2.20979 101.786 4.10479 100.303 5.68379C95.668 10.6188 94.5 14.9158 94.5 27.0238V38.0558H76.66C62.303 38.0558 57.345 38.4328 51.266 39.9878C27.197 46.1438 8.504 64.6828 1.79 89.0558C0.101 95.1908 0 105.649 0 275.056C0 444.463 0.101 454.921 1.79 461.056C8.415 485.106 27.455 504.034 51.109 510.084C58.649 512.012 62.982 512.056 246.5 512.056C430.018 512.056 434.351 512.012 441.891 510.084C465.627 504.013 484.541 485.178 491.235 460.943C492.891 454.95 493 443.491 493 275.056C493 105.649 492.899 95.1908 491.21 89.0558C484.496 64.6828 465.803 46.1438 441.734 39.9878C435.655 38.4328 430.697 38.0558 416.34 38.0558H398.5L398.478 26.8058C398.454 14.2968 397.079 9.72879 391.876 4.86979C384.902 -1.64421 373.599 -1.62021 366.148 4.92379C362.044 8.52879 361.014 12.1978 360.5 25.0558L360 37.5558H246.5H133L132.5 25.0558C131.875 9.43179 130.294 5.97779 121.8 1.67679C117.952 -0.272206 110.135 -0.372206 106 1.47279ZM94.5 87.0878C94.5 102.36 97.116 108.066 106 112.166C114.628 116.148 124.529 113.234 129.613 105.216C132.393 100.834 132.5 100.206 132.5 88.3598V76.0558H246.5H360.5V88.3598C360.5 100.206 360.607 100.834 363.387 105.216C371.48 117.978 390.183 116.481 396.61 102.556C398.056 99.4228 398.461 96.0948 398.478 87.2068L398.5 75.8578L415.75 76.2388C432.123 76.6008 433.261 76.7558 438.123 79.2908C440.941 80.7598 445.07 84.0328 447.298 86.5638C455.091 95.4168 454.5 79.9468 454.5 275.056C454.5 470.955 455.148 454.783 446.937 463.914C444.334 466.81 440.419 469.752 437.279 471.17L432 473.556H246.5H61L55.721 471.17C52.581 469.752 48.666 466.81 46.063 463.914C37.852 454.783 38.5 470.955 38.5 275.056C38.5 79.9568 37.91 95.4158 45.697 86.5698C49.791 81.9188 55.519 78.3348 61 76.9938C62.65 76.5908 70.862 76.2148 79.25 76.1578L94.5 76.0558V87.0878ZM131.213 171.478C125.213 173.092 119.737 177.434 116.5 183.145C114.485 186.701 114.001 188.928 114 194.634C114 200.768 114.404 202.366 117.026 206.608C123.546 217.154 136.858 221.051 147.902 215.648C168.095 205.768 164.397 175.846 142.4 171.128C136.54 169.871 137.274 169.848 131.213 171.478ZM236.832 170.994C224.83 173.934 216.17 186.118 218.051 197.419C220.768 213.744 237.275 222.622 252 215.679C257.958 212.869 260.674 210.104 263.416 204.056C267.255 195.587 265.692 185.828 259.34 178.612C253.879 172.407 244.299 169.165 236.832 170.994ZM341.5 170.971C336.302 172.051 332.272 174.459 328.296 178.861C323.691 183.958 322.183 188.735 322.686 196.634C323.164 204.145 326.448 209.667 333.299 214.482C336.665 216.848 338.859 217.548 343.922 217.87C351.935 218.38 356.14 217.005 361.801 212.023C367.072 207.383 369.643 201.636 369.643 194.496C369.643 179.651 355.723 168.015 341.5 170.971ZM131.494 265.935C123.895 268.414 118.808 272.928 115.581 280.056C110.643 290.965 115.781 305.013 126.792 310.707C130.932 312.848 139.206 313.488 144.5 312.076C150.665 310.433 158.612 302.3 160.443 295.76C163.468 284.954 158.303 273.115 148.324 267.982C144.114 265.816 135.187 264.731 131.494 265.935ZM234.17 266.623C223.915 269.893 216.317 282.006 218.038 292.343C221.717 314.439 250.275 320.531 261.915 301.702C265.367 296.118 266.466 287.514 264.492 281.531C260.619 269.797 246.298 262.756 234.17 266.623ZM339.596 266.215C329.354 269.158 322.5 278.454 322.5 289.402C322.5 306.886 340.151 318.089 356.041 310.689C364.913 306.558 369.68 298.907 369.632 288.877C369.558 273.301 354.492 261.934 339.596 266.215ZM129.5 361.363C124.592 362.91 116.221 371.578 114.716 376.672C111.946 386.048 113.899 393.523 120.966 400.59C128.533 408.157 137.502 410.048 146.5 405.975C156.057 401.649 160.926 394.251 160.926 384.056C160.926 367.565 145.398 356.352 129.5 361.363ZM234.259 361.479C225.913 364.458 220.386 370.737 218.434 379.458C216.255 389.198 221.659 400.546 230.665 405.14C246.661 413.301 265.456 401.91 265.456 384.056C265.456 367.828 249.277 356.119 234.259 361.479ZM338.248 361.422C332.202 363.678 327.843 367.655 324.961 373.546C319.503 384.703 323.354 397.98 333.948 404.53C338.203 407.16 339.779 407.556 346 407.556C352.22 407.556 353.797 407.16 358.047 404.532C360.737 402.869 364.302 399.568 365.969 397.196C368.789 393.184 369 392.269 369 384.056C369 375.843 368.789 374.928 365.969 370.916C359.802 362.14 347.559 357.948 338.248 361.422Z" fill="#F18231"/>
</svg>
