<?xml version="1.0" encoding="utf-8"?>
<!-- Generator: Adobe Illustrator 23.1.0, SVG Export Plug-In . SVG Version: 6.00 Build 0)  -->
<svg version="1.1" id="Слой_1" xmlns="http://www.w3.org/2000/svg" xmlns:xlink="http://www.w3.org/1999/xlink" x="0px" y="0px"
	 viewBox="0 0 511 511" style="enable-background:new 0 0 511 511;" xml:space="preserve">
<style type="text/css">
	.st0{fill-rule:evenodd;clip-rule:evenodd;fill:#F18231;}
</style>
<path class="st0" d="M232.4,0.2c-9.2,0.9-29.8,4.5-39.5,6.9c-44.7,11.2-85.3,34.4-118.4,67.5C41.4,107.7,18.2,148.4,7,193.1
	c-5.8,23-7,33.9-7,62.5s1.2,39.5,7,62.5c11.2,44.7,34.4,85.3,67.5,118.4c33.1,33.1,73.8,56.3,118.4,67.5c23,5.8,33.9,7,62.5,7
	s39.5-1.2,62.5-7c44.7-11.2,85.3-34.4,118.4-67.5c33.1-33.1,56.3-73.8,67.5-118.4c5.8-23,7-33.9,7-62.5s-1.2-39.5-7-62.5
	c-11.2-44.7-34.4-85.3-67.5-118.4c-33.1-33.1-73.8-56.3-118.4-67.5c-20.6-5.2-33.5-6.7-58-7.1C247.3-0.1,234.9,0,232.4,0.2z
	 M290.9,42.5c45.7,8,84.4,28,117,60.6c32.6,32.6,52.5,71,60.7,117.2c1.9,10.8,2.3,16.3,2.3,35.3s-0.4,24.5-2.3,35.3
	c-8.2,46.2-28.1,84.6-60.7,117.2c-32.6,32.6-71,52.5-117.2,60.7c-18.5,3.3-52.1,3.3-70.6,0c-46.2-8.2-84.6-28.1-117.2-60.7
	c-32.6-32.6-52.5-71-60.7-117.2c-3.3-18.5-3.3-52.1,0-70.6c8.2-46.2,28.1-84.6,60.7-117.2c36.4-36.4,81.1-57.4,134-62.9
	C247.3,39.1,279.3,40.5,290.9,42.5z M246.9,120.2c-4.6,2.4-7.6,5.5-9.6,9.8c-1.7,3.8-1.8,7.9-1.9,67.3c0,68.3-0.1,67.2,5.3,73.1
	c3,3.3,81.3,62.1,85.7,64.3c6.4,3.3,16.3,1.7,21.9-3.5c6.3-5.9,8.1-16.7,3.9-24.2c-1.7-3.1-10.4-10.1-39.5-32l-37.2-28l0-56.3
	c0-60.7,0-60.3-5.3-66.1C264.7,118.9,253.6,116.7,246.9,120.2z"/>
</svg>
