<svg xmlns="http://www.w3.org/2000/svg" viewBox="0 0 510.99 510.84">
	<defs>
		<style>
			.cls-1 {
				fill: #f18231;
				fill-rule: evenodd;
				opacity: 0.7;
			}
		</style>
	</defs>
	<title>Ресурс 1</title>
	<g id="Слой_2" data-name="Слой 2">
		<g id="Слой_1-2" data-name="Слой 1">
			<path class="cls-1"
				d="M510.77,232.42a371.56,371.56,0,0,0-6.92-39.5A258,258,0,0,0,317.92,7C295,1.23,284,0,255.42,0s-39.53,1.23-62.5,7A258,258,0,0,0,7,192.92c-5.76,23-7,33.94-7,62.5S1.23,295,7,317.92A258,258,0,0,0,192.92,503.85c23,5.76,33.94,7,62.5,7s39.53-1.23,62.5-7A258,258,0,0,0,503.85,317.92c5.16-20.57,6.73-33.45,7-58C511.07,247.27,511,234.9,510.77,232.42ZM381.94,219c-1.36,4.57-5.67,9.12-58.25,61.65-39.37,39.33-57.91,57.18-60.49,58.25a21.18,21.18,0,0,1-16.28-.39c-2.71-1.27-22.27-20.21-60.64-58.72-54.94-55.16-56.67-57-57.8-61.9a21,21,0,0,1,25.4-25.4c4.87,1.13,6.63,2.75,53.29,49.29l48.25,48.12,48.25-48.12c46.66-46.54,48.42-48.16,53.3-49.29,13.15-3,25.45,6.31,26.35,20A30,30,0,0,1,381.94,219Z" />
		</g>
	</g>
</svg>