<svg width="353" height="448" viewBox="0 0 353 448" fill="none" xmlns="http://www.w3.org/2000/svg">
<path fill-rule="evenodd" clip-rule="evenodd" d="M35.0875 1.52671C23.6785 4.59471 12.2295 13.5577 6.1505 24.1837C-0.387502 35.6107 0.00449415 22.8737 0.00449415 223.939C0.00449415 425.004 -0.387502 412.267 6.1505 423.694C10.0685 430.543 17.4005 437.875 24.2495 441.793C35.5325 448.249 27.8815 447.939 176.005 447.939C293.882 447.939 311.317 447.748 316.489 446.401C332.561 442.215 346.28 428.496 350.466 412.424C352.711 403.803 352.81 125.355 350.569 121.139C348.834 117.876 233.425 2.61171 230.321 1.04271C228.771 0.259706 200.895 -0.0422924 134.32 0.00470761C55.4705 0.0597076 39.6405 0.302707 35.0875 1.52671ZM208.005 67.2287C208.005 95.7587 208.299 103.65 209.542 108.424C213.728 124.496 227.448 138.215 243.52 142.401C248.294 143.644 256.184 143.939 284.714 143.939H320.004V273.227V402.515L317.754 406.977C316.11 410.237 314.302 412.045 311.042 413.689L306.58 415.939H175.95H45.3195L40.9115 413.645C37.7805 412.015 35.8535 410.073 34.2545 406.933L32.0045 402.515V223.939V45.3627L34.2545 40.9007C35.8985 37.6407 37.7065 35.8327 40.9665 34.1887L45.4285 31.9387H126.716H208.005V67.2287ZM275.288 111.709C254.326 111.97 253.398 111.898 249.032 109.682C245.731 108.007 243.896 106.184 242.255 102.95C240.124 98.7497 240.005 97.3507 240.005 76.4837V54.4517L268.512 82.9457L297.02 111.439L275.288 111.709ZM167.926 162.213C166.07 163.463 163.529 166.005 162.279 167.861L160.005 171.235V242.305V313.375L139.755 293.236C118.011 271.612 116.812 270.814 108.448 272.383C103.724 273.27 97.3355 279.659 96.4485 284.383C94.7975 293.187 94.4255 292.705 131.827 330.26C150.9 349.411 167.719 365.724 169.204 366.51C172.418 368.211 179.265 368.38 182.321 366.834C185.43 365.261 252.841 297.994 254.571 294.739C259.675 285.13 251.414 271.939 240.291 271.939C237.862 271.939 234.89 272.437 233.688 273.045C232.487 273.654 222.618 282.987 211.755 293.786L192.005 313.42V242.328V171.235L189.731 167.861C186.239 162.678 181.493 159.939 176.005 159.939C172.768 159.939 170.247 160.648 167.926 162.213Z" fill="#B2B2B2"/>
</svg>
