<svg xmlns="http://www.w3.org/2000/svg" viewBox="0 0 433 512" style="enable-background:new 0 0 433 512" xml:space="preserve"><path d="M168.2.2c-27.8 1.8-49.9 4.1-64.3 6.9C40.4 19.2 8.4 45.3 1.6 90.4c-2.2 14.7-2.2 286.8 0 299.5 2.8 16.1 9.2 29.3 19.6 40.2l5.7 6 .3 28c.3 26 .5 28.3 2.4 32.5C32.1 502 36 506 41.5 509c3.8 2 5.4 2.1 26.5 2.1 24.5 0 25.7-.2 32.3-6.4 6.3-5.8 7.1-8.9 7.7-28.6l.5-18h215l.5 18c.5 19.7 1.4 22.8 7.7 28.6 6.6 6.1 7.8 6.4 32.3 6.4 21.1 0 22.7-.1 26.5-2.1 5.5-2.9 9.4-7 11.9-12.4 2-4.2 2.1-6.5 2.4-32.5l.3-28 5.7-6c10.4-10.9 16.8-24.1 19.6-40.2 2.2-12.7 2.2-284.9 0-299.5-6.8-45.1-38.8-71.2-102-83.3C301 1.9 279.8.4 223.9.1c-27.5-.2-52.7-.1-55.7.1zm209 174.4v67h-322v-134h322v67zm-266 152.6c16.1 7.7 26 25.4 23.1 41.6-3.1 17.3-15.8 30.5-32.8 33.8-16.8 3.3-34.9-6.5-42.7-23-8.2-17.4-2.3-37.9 14.1-49.2 7.3-5.1 13.7-6.8 23.3-6.6 7.1.2 9.5.8 15 3.4zm238.3-1.7c22.9 7.9 34 33 24 54.1-7.8 16.5-25.9 26.2-42.7 23-16.9-3.3-29.6-16.3-32.8-33.5-3.4-18.1 8.6-36.9 28-44 5.6-2.1 16.9-1.9 23.5.4z" style="fill-rule:evenodd;clip-rule:evenodd;fill:#b2b2b2"/></svg>