<?xml version="1.0" encoding="utf-8"?>
<!-- Generator: Adobe Illustrator 23.1.0, SVG Export Plug-In . SVG Version: 6.00 Build 0)  -->
<svg version="1.1" id="Слой_1" xmlns="http://www.w3.org/2000/svg" xmlns:xlink="http://www.w3.org/1999/xlink" x="0px" y="0px"
	 viewBox="0 0 433 512" style="enable-background:new 0 0 433 512;" xml:space="preserve">
<style type="text/css">
	.st0{fill-rule:evenodd;clip-rule:evenodd;fill:#B2B2B2;}
</style>
<path class="st0" d="M168.2,0.2c-27.8,1.8-49.9,4.1-64.3,6.9C40.4,19.2,8.4,45.3,1.6,90.4c-2.2,14.7-2.2,286.8,0,299.5
	c2.8,16.1,9.2,29.3,19.6,40.2l5.7,6l0.3,28c0.3,26,0.5,28.3,2.4,32.5c2.5,5.4,6.4,9.4,11.9,12.4c3.8,2,5.4,2.1,26.5,2.1
	c24.5,0,25.7-0.2,32.3-6.4c6.3-5.8,7.1-8.9,7.7-28.6l0.5-18h107.5h107.5l0.5,18c0.5,19.7,1.4,22.8,7.7,28.6
	c6.6,6.1,7.8,6.4,32.3,6.4c21.1,0,22.7-0.1,26.5-2.1c5.5-2.9,9.4-7,11.9-12.4c2-4.2,2.1-6.5,2.4-32.5l0.3-28l5.7-6
	c10.4-10.9,16.8-24.1,19.6-40.2c2.2-12.7,2.2-284.9,0-299.5c-6.8-45.1-38.8-71.2-102-83.3c-27.4-5.2-48.6-6.7-104.5-7
	C196.4-0.1,171.2,0,168.2,0.2z M377.2,174.6v67h-161h-161v-67v-67h161h161V174.6z M111.2,327.2c16.1,7.7,26,25.4,23.1,41.6
	c-3.1,17.3-15.8,30.5-32.8,33.8c-16.8,3.3-34.9-6.5-42.7-23c-8.2-17.4-2.3-37.9,14.1-49.2c7.3-5.1,13.7-6.8,23.3-6.6
	C103.3,324,105.7,324.6,111.2,327.2z M349.5,325.5c22.9,7.9,34,33,24,54.1c-7.8,16.5-25.9,26.2-42.7,23
	c-16.9-3.3-29.6-16.3-32.8-33.5c-3.4-18.1,8.6-36.9,28-44C331.6,323,342.9,323.2,349.5,325.5z"/>
</svg>
