<?xml version="1.0" encoding="utf-8"?>
<!-- Generator: Adobe Illustrator 23.1.0, SVG Export Plug-In . SVG Version: 6.00 Build 0)  -->
<svg version="1.1" id="Слой_1" xmlns="http://www.w3.org/2000/svg" xmlns:xlink="http://www.w3.org/1999/xlink" x="0px" y="0px"
	 viewBox="0 0 361 512" style="enable-background:new 0 0 361 512;" xml:space="preserve">
<style type="text/css">
	.st0{fill-rule:evenodd;clip-rule:evenodd;fill:#F18231;}
</style>
<path class="st0" d="M158.1,0.9C89.2,9.8,30.9,57.6,9.4,122.8c-15,45.5-12.1,89.9,9.5,145c17.9,45.6,46.3,92.7,109.4,181.5
	c12.9,18.2,27.4,38.8,32.3,45.9c5,7.3,10.2,13.7,11.9,14.7c4,2.5,11.2,2.5,15.2,0c1.8-1.1,8.8-10.2,17.6-22.7
	c8-11.5,23-32.8,33.4-47.4c57.2-80.4,84.6-126.3,102.4-171.5c18.6-47.2,23.4-86.1,15.4-125.5c-2.4-12.1-9.3-31.7-15.3-43.5
	c-27.7-54.7-79.2-90.9-140-98.4C191.4-0.3,167.7-0.3,158.1,0.9z M194.3,30.9c63.3,6.3,115.4,51.1,130.9,112.4
	c10.9,43.1,2.4,88-28,148c-17.4,34.3-39.2,68.7-82.2,129.2c-12.8,18.1-25.8,36.3-28.8,40.6c-3,4.3-5.8,7.8-6.1,7.8
	c-0.4,0-4.4-5.3-9-11.8c-39.3-55.4-51.2-72.4-63.1-90.3c-57.8-86.6-82-149.5-77-200c2.9-29.1,12.6-54.4,29.6-76.8
	C92.2,48.2,142.9,25.7,194.3,30.9z M161.6,91.5c-34.8,7.4-62.7,35.7-69.9,70.5c-2,9.9-2,25.7,0,35.6c6.9,33.6,32.4,60.4,66.4,69.8
	c9.2,2.6,34.8,2.6,44,0c32.5-9,56.6-33.1,65.6-65.6c2.6-9.2,2.6-34.8,0-44c-9.4-34.1-36.2-59.5-69.8-66.4
	C188.3,89.5,171,89.5,161.6,91.5z M196.2,122.4c23.1,6.7,39.4,25.7,43,49.9c3.8,25.7-12.4,53.2-37,62.8c-14.9,5.8-29.3,5.8-44.2,0
	c-24.7-9.6-40.9-37.1-37-62.9c3.9-26.5,23.4-46.7,49.3-51.3C177.1,119.7,189.3,120.4,196.2,122.4z"/>
</svg>
