<?xml version="1.0" encoding="utf-8"?>
<!-- Generator: Adobe Illustrator 23.1.0, SVG Export Plug-In . SVG Version: 6.00 Build 0)  -->
<svg version="1.1" id="Слой_1" xmlns="http://www.w3.org/2000/svg" xmlns:xlink="http://www.w3.org/1999/xlink" x="0px" y="0px"
	 viewBox="0 0 360 360" style="enable-background:new 0 0 360 360;" xml:space="preserve">
<style type="text/css">
	.st0{fill-rule:evenodd;clip-rule:evenodd;fill:#FFFFFF;}
</style>
<path class="st0" d="M134.3,1.2c-30.9,5-58,17.7-81.2,38c-25.7,22.4-43.2,52.7-50.9,88c-1.9,8.5-2.2,13.1-2.2,31
	c0,17.9,0.3,22.5,2.2,31c4.8,22,14.2,43.7,26.5,61.2c8.1,11.5,25.8,29.1,37.7,37.5c17.4,12.3,38,21.2,60,25.9c9,2,13.4,2.3,31.5,2.3
	c17.9,0,22.5-0.3,31.1-2.2c20.4-4.4,39.9-12.6,56.4-23.7l8.4-5.6l36,36c24.3,24.2,37.3,36.5,39.8,37.5c7.9,3.3,18.2,1.1,24-5.1
	c5.6-6,7.4-15.6,4.3-23.2c-1-2.5-13.3-15.5-37.5-39.8l-36-36l5.6-8.4c11-16.5,19.2-36,23.7-56.4c1.9-8.7,2.2-13.2,2.2-31.1
	c0-18-0.3-22.5-2.2-31.2C302.9,77.5,272,37.5,227.7,15.7c-11.9-5.8-24.4-10.2-37.7-13C176.8-0.1,147.1-0.9,134.3,1.2z M176.4,44.3
	c49.1,8,87.5,46.4,95.5,95.5c6,36.8-5.9,73.6-32.4,100c-45.3,45.3-117.8,45.3-163.1,0C49.9,213.3,38,176.6,44,139.7
	c7.1-44.1,39.3-80.3,82-92.5C142.4,42.5,159.6,41.5,176.4,44.3z"/>
</svg>
