<svg width="512" height="512" viewBox="0 0 512 512" fill="none" xmlns="http://www.w3.org/2000/svg">
<path fill-rule="evenodd" clip-rule="evenodd" d="M228.328 1.01009C208.24 3.03209 181.87 9.56509 161.828 17.4841C104.581 40.1041 56.7631 83.2881 28.4421 137.944C13.1911 167.377 3.75808 199.47 0.740081 232.196C-0.719919 248.025 0.0700812 278.31 2.32108 292.834C6.92108 322.499 16.2611 351.097 29.2681 375.334L33.5611 383.334L16.6841 435.334C1.51208 482.079 -0.160919 487.916 0.131081 493.089C0.722081 503.539 9.47108 511.886 19.7351 511.792C22.8631 511.763 40.9201 506.381 76.3281 494.925L128.328 478.101L136.328 482.394C160.565 495.401 189.163 504.741 218.828 509.341C233.352 511.592 263.637 512.382 279.466 510.922C366.072 502.934 443.159 451.026 483.214 373.724C521.531 299.776 521.556 211.945 483.281 138.073C443.534 61.3591 366.78 9.20509 281.404 0.897092C268.636 -0.345908 241.209 -0.286908 228.328 1.01009ZM286.828 42.4131C292.603 43.2451 303.178 45.4521 310.328 47.3151C348.225 57.1941 379.38 75.2101 407.916 103.746C436.452 132.282 454.468 163.437 464.347 201.334C469.61 221.527 471.106 233.586 471.106 255.834C471.106 278.082 469.61 290.141 464.347 310.334C454.468 348.231 436.452 379.386 407.916 407.922C379.38 436.458 348.225 454.474 310.328 464.353C286.735 470.503 264.733 472.575 241.328 470.852C206.435 468.284 175.447 458.616 144.572 440.666C133.057 433.972 133.834 433.87 90.4751 447.8C69.6561 454.489 52.4151 459.754 52.1611 459.501C51.9081 459.247 57.1731 442.006 63.8621 421.187C77.7921 377.828 77.6901 378.605 70.9961 367.09C40.8631 315.258 32.6301 257.647 47.3091 201.334C57.1881 163.437 75.2041 132.282 103.74 103.746C132.273 75.2131 163.41 57.2061 201.328 47.3121C213.778 44.0631 230.104 41.3011 241.828 40.4591C251.376 39.7741 275.917 40.8391 286.828 42.4131ZM145.328 233.217C136.2 237.533 130.872 245.868 130.872 255.834C130.872 269.7 141.975 280.814 155.828 280.814C169.674 280.814 180.765 269.717 180.796 255.834C180.837 237.599 161.773 225.443 145.328 233.217ZM245.328 233.217C236.2 237.533 230.872 245.868 230.872 255.834C230.872 269.7 241.975 280.814 255.828 280.814C269.674 280.814 280.765 269.717 280.796 255.834C280.837 237.599 261.773 225.443 245.328 233.217ZM345.328 233.217C336.2 237.533 330.872 245.868 330.872 255.834C330.872 269.7 341.975 280.814 355.828 280.814C369.674 280.814 380.765 269.717 380.796 255.834C380.837 237.599 361.773 225.443 345.328 233.217Z" fill="#F18231"/>
</svg>
