<?xml version="1.0" encoding="utf-8"?>
<!-- Generator: Adobe Illustrator 23.1.0, SVG Export Plug-In . SVG Version: 6.00 Build 0)  -->
<svg version="1.1" id="Слой_1" xmlns="http://www.w3.org/2000/svg" xmlns:xlink="http://www.w3.org/1999/xlink" x="0px" y="0px"
	 viewBox="0 0 240 512" style="enable-background:new 0 0 240 512;" xml:space="preserve">
<style type="text/css">
	.st0{fill-rule:evenodd;clip-rule:evenodd;fill:#F18231;}
</style>
<path class="st0" d="M116.1,1c-9.3,2.4-18.3,7.5-25.4,14.6c-18.3,18.2-21.7,46.8-8,67.6c10.9,16.6,26.6,25.5,45.7,25.7
	c15.8,0.1,28.7-5.2,39.7-16.3c23.4-23.7,20.4-62-6.2-82.1c-9.3-7-18.1-10-30.4-10.5C125.2-0.2,119.3,0.2,116.1,1z M82.7,124.2
	c-10.2,3.2-9.9,2.7-48.1,84c-36.5,77.7-36.4,77.6-33.4,84.7c2,4.7,5.2,7.2,13.5,10.7c11.2,4.8,18,4.1,24.1-2.5
	c1.4-1.5,9.6-16.7,18.2-33.8l15.7-31.2l0,30.8l0,30.8l-27.5,86c-30,93.9-29.5,92-25.1,101.5c4.8,10.3,15.5,16.5,28.5,16.4
	c9.9,0,18.9-5,24-13.3c1.1-1.7,12.8-37.2,26.1-78.7c13.3-41.5,24.7-77.3,25.4-79.4l1.3-3.9l9.1,22.4c15.7,38.7,16.6,42.5,22.8,101.1
	c2.8,26.7,5.1,44.1,6.1,46.4c5.4,12.9,17.8,18.1,32.5,13.7c9.4-2.8,16.7-9.3,20.7-18.5c2.7-6.4,2.4-11.5-4.2-62.1
	c-3.6-27.9-7-52.9-7.5-55.6c-3.2-16.7-7.4-29.3-19.2-56.5l-9.9-22.8l0-12.2l0-12.2l16.7,17.1c18.1,18.5,20.9,20.4,28.7,18.9
	c4.4-0.8,13.7-9.1,16.6-14.8c2.2-4.4,2.4-10.6,0.5-15.1c-0.8-1.8-13.7-16.7-28.7-33.2c-17.3-19.1-28-31.6-29.2-34.4
	c-2.2-4.9-2.4-7.7-3.7-46.8c-1-30.1-1.2-31.1-7.7-36.1l-3.7-2.8l-39.1-0.2C94.6,122.8,86.5,123,82.7,124.2z"/>
</svg>
