<?xml version="1.0" encoding="utf-8"?>
<!-- Generator: Adobe Illustrator 23.1.0, SVG Export Plug-In . SVG Version: 6.00 Build 0)  -->
<svg version="1.1" id="Слой_1" xmlns="http://www.w3.org/2000/svg" xmlns:xlink="http://www.w3.org/1999/xlink" x="0px" y="0px"
	 viewBox="0 0 512 248" style="enable-background:new 0 0 512 248;" xml:space="preserve">
<style type="text/css">
	.st0{fill-rule:evenodd;clip-rule:evenodd;fill:#F18231;}
</style>
<path class="st0" d="M379.3,1.3c-4,1.8-7.9,5.5-10.1,9.7c-2.4,4.5-2.4,13.3,0.1,17.9c1,1.9,18.1,19.6,37.9,39.2l36.1,35.7l-213.8,0
	c-232.5,0-217.4-0.3-223.6,5.3c-7.9,7.2-7.9,22.2,0,29.4c6.2,5.7-9,5.3,223.6,5.3l213.8,0l-36.1,35.7
	c-19.9,19.6-36.9,37.3-37.9,39.2c-1.1,2.1-1.9,5.6-1.9,9c0,10.6,7.5,18.9,17.9,19.8c10.5,0.9,8.4,2.6,67.9-56.7
	c37.2-37.1,55.5-55.9,56.7-58.6c2.4-5.1,2.4-11.9,0-17c-2.6-5.6-109.1-111.8-114.3-114C391-0.4,383.4-0.5,379.3,1.3z"/>
</svg>
