<svg width="512" height="248" viewBox="0 0 512 248" fill="none" xmlns="http://www.w3.org/2000/svg">
<path fill-rule="evenodd" clip-rule="evenodd" d="M379.283 1.31333C375.321 3.06933 371.395 6.84033 369.181 11.0183C366.784 15.5403 366.81 24.3173 369.236 28.9053C370.253 30.8303 387.33 48.4723 407.184 68.1103L443.283 103.815L229.501 103.86C-3.04849 103.909 12.0655 103.548 5.9145 109.203C-1.9715 116.452 -1.9715 131.358 5.9145 138.607C12.0655 144.262 -3.04849 143.901 229.501 143.951L443.283 143.997L407.177 179.701C387.319 199.338 370.243 216.98 369.229 218.905C368.098 221.052 367.376 224.531 367.362 227.905C367.32 238.478 374.862 246.832 385.223 247.692C395.706 248.561 393.626 250.296 453.145 191.032C490.382 153.953 508.605 135.12 509.872 132.405C512.254 127.299 512.254 120.507 509.87 115.405C507.248 109.797 400.725 3.60233 395.565 1.45333C391.05 -0.426671 383.358 -0.492671 379.283 1.31333Z" fill="black"/>
</svg>
