<svg display="none" xmlns="http://www.w3.org/2000/svg">

	<symbol id="arrow-left" viewBox="0 0 259.7 511.6">
		<g>
			<path
				d="M229.5,0l30.1,30.1L48.9,240.9c-8.3,8.3-8.3,21.8,0,30.2l210.4,210.4l-30.2,30.2L18.7,301.2c-25-25-25-65.5,0-90.5L229.5,0z" />
		</g>
	</symbol>

	<symbol id="arrow-right" viewBox="0 0 259.7 511.6">
		<g>
			<path
				d="M240.9,210.8c25,25,25,65.5,0,90.5L30.5,511.6L0.4,481.5l210.4-210.4c8.3-8.3,8.3-21.8,0-30.2L0,30.1L30.1,0L240.9,210.8z" />
		</g>
	</symbol>

	<symbol id="tab-icon-list" viewBox="0 0 24 24">
		<path d="M7,6H23a1,1,0,0,0,0-2H7A1,1,0,0,0,7,6Z" />
		<path d="M23,11H7a1,1,0,0,0,0,2H23a1,1,0,0,0,0-2Z" />
		<path d="M23,18H7a1,1,0,0,0,0,2H23a1,1,0,0,0,0-2Z" />
		<circle cx="2" cy="5" r="2" />
		<circle cx="2" cy="12" r="2" />
		<circle cx="2" cy="19" r="2" />
	</symbol>

	<symbol id="tab-icon-grid" viewBox="0 0 24 24">
		<path d="M4.5,17.5H2a2,2,0,0,0-2,2V22a2,2,0,0,0,2,2H4.5a2,2,0,0,0,2-2V19.5A2,2,0,0,0,4.5,17.5Zm0,4.5H2V19.5H4.5Z" />
		<path
			d="M22,17.5H19.5a2,2,0,0,0-2,2V22a2,2,0,0,0,2,2H22a2,2,0,0,0,2-2V19.5A2,2,0,0,0,22,17.5ZM22,22H19.5V19.5H22Z" />
		<path
			d="M4.5,8.75H2a2,2,0,0,0-2,2v2.5a2,2,0,0,0,2,2H4.5a2,2,0,0,0,2-2v-2.5A2,2,0,0,0,4.5,8.75Zm0,4.5H2v-2.5H4.5Z" />
		<path
			d="M22,8.75H19.5a2,2,0,0,0-2,2v2.5a2,2,0,0,0,2,2H22a2,2,0,0,0,2-2v-2.5A2,2,0,0,0,22,8.75Zm0,4.5H19.5v-2.5H22Z" />
		<path d="M4.5,0H2A2,2,0,0,0,0,2V4.5a2,2,0,0,0,2,2H4.5a2,2,0,0,0,2-2V2A2,2,0,0,0,4.5,0Zm0,4.5H2V2H4.5Z" />
		<path
			d="M13.25,17.5h-2.5a2,2,0,0,0-2,2V22a2,2,0,0,0,2,2h2.5a2,2,0,0,0,2-2V19.5A2,2,0,0,0,13.25,17.5Zm0,4.5h-2.5V19.5h2.5Z" />
		<path
			d="M13.25,8.75h-2.5a2,2,0,0,0-2,2v2.5a2,2,0,0,0,2,2h2.5a2,2,0,0,0,2-2v-2.5A2,2,0,0,0,13.25,8.75Zm0,4.5h-2.5v-2.5h2.5Z" />
		<path d="M13.25,0h-2.5a2,2,0,0,0-2,2V4.5a2,2,0,0,0,2,2h2.5a2,2,0,0,0,2-2V2A2,2,0,0,0,13.25,0Zm0,4.5h-2.5V2h2.5Z" />
		<path d="M22,0H19.5a2,2,0,0,0-2,2V4.5a2,2,0,0,0,2,2H22a2,2,0,0,0,2-2V2A2,2,0,0,0,22,0Zm0,4.5H19.5V2H22Z" />
	</symbol>
</svg>