<?xml version="1.0" encoding="utf-8"?>
<!-- Generator: Adobe Illustrator 23.1.0, SVG Export Plug-In . SVG Version: 6.00 Build 0)  -->
<svg version="1.1" id="Слой_1" xmlns="http://www.w3.org/2000/svg" xmlns:xlink="http://www.w3.org/1999/xlink" x="0px" y="0px"
	 viewBox="0 0 448 448" style="enable-background:new 0 0 448 448;" xml:space="preserve">
<style type="text/css">
	.st0{fill-rule:evenodd;clip-rule:evenodd;fill:#F18231;}
</style>
<path class="st0" d="M72.7,1.9c-4,1-10.5,3.5-14.5,5.5c-20.7,10.3-41.4,33.3-50.5,56C1.8,78.3,0.1,88.1,0,107.9
	c-0.1,23.4,3.2,41.2,12.1,66c25.4,70.6,88,149.6,163.3,206.4c45.1,34,88.1,55.2,131.5,64.8c8.5,1.9,13.1,2.2,30,2.2
	c18.4,0,20.9-0.2,30.5-2.6c5.8-1.5,14.2-4.2,18.7-6.1c33.5-14.1,61.3-51.4,61.2-81.9c0-13.8-4.9-27.3-13.2-36.1
	c-5.3-5.6-79.7-58.6-88.8-63.2c-16.8-8.4-29.9-9.1-44.5-2.2c-8.3,3.9-14.7,8.9-27.1,20.9l-9.1,8.8l-6.9-4.7
	c-28-19.1-62.2-52.6-86.1-84.4c-11.1-14.7-11.2-12.2,1.1-25.1c5.9-6.1,12-13.1,13.7-15.6c11.6-16.9,13-33.1,4.4-51
	c-4.2-8.7-55.7-81.8-62.8-89.1c-5.7-5.9-15.6-11.5-24.2-13.7C95.9-0.7,81.7-0.4,72.7,1.9z M101.1,35.5c4,2.5,7.7,6.9,20.6,25
	c32.7,45.5,41.1,58.2,42.2,64c1.1,5.7-2.3,10.9-16.9,26.4c-7.4,7.8-14.2,15.8-15.2,17.8c-2.5,5.2-3,16.7-0.9,23.1
	c4.5,13.5,39.2,55.7,66.5,80.8c20.7,19,42.9,36.1,55,42.3c3,1.5,6.9,2.5,11.8,2.8c11.4,0.7,14.4-0.8,30.3-16.3
	c15.9-15.4,21.1-19,26.9-18.2c6.7,0.9,11.9,4.2,50.8,31.7c42.6,30.2,42.2,29.8,42.2,41.2c0,12.5-7.1,26-20.3,38.4
	c-12.9,12.1-26.5,18.3-45,20.5c-54.2,6.3-136.4-36-207.2-106.6C81.9,248.6,42,182.2,33.5,127.6c-1.8-11.7-1.4-30.5,1-40.4
	C39.4,66.3,52.6,48.5,71.8,37C81.6,31,92.9,30.5,101.1,35.5z"/>
</svg>
