<svg width="509" height="512" viewBox="0 0 509 512" fill="none" xmlns="http://www.w3.org/2000/svg">
<path fill-rule="evenodd" clip-rule="evenodd" d="M465.183 11.0662C452.808 17.1542 367.758 58.8382 276.183 103.698C184.608 148.558 108.849 185.984 107.831 186.867C102.729 191.289 101.616 200.355 105.472 206.079C106.934 208.249 126.54 222.964 159.722 246.797C188.301 267.323 211.683 284.474 211.683 284.911C211.683 285.348 165.108 330.73 108.183 385.76C51.2583 440.791 3.67029 487.269 2.43329 489.044C-4.11271 498.437 3.36829 511.963 15.1143 511.973C19.1083 511.977 38.6013 501.576 213.114 406.329C319.577 348.223 409.608 298.988 413.183 296.92C417.097 294.655 420.446 291.855 421.6 289.881C424.071 285.656 424.054 279.161 421.56 274.855C420.161 272.437 405.825 261.582 371.144 236.677C344.49 217.537 322.683 201.456 322.683 200.942C322.683 200.428 363.951 160.407 414.39 112.007C512.766 17.6092 509.418 21.1562 507.596 13.2642C506.584 8.87915 502.324 3.27215 498.697 1.55115C492.122 -1.56885 489.156 -0.726847 465.183 11.0662Z" fill="#F18231"/>
</svg>
