<svg xmlns="http://www.w3.org/2000/svg" viewBox="0 0 510.99 510.84"><defs><style>.cls-1{fill:#fff;fill-rule:evenodd;opacity:0.7;}</style></defs><title>Ресурс 2</title><g id="Слой_2" data-name="Слой 2"><g id="Слой_1-2" data-name="Слой 1"><path class="cls-1" d="M.22,278.42a369.13,369.13,0,0,0,6.93,39.5A258,258,0,0,0,193.07,503.85c23,5.77,33.94,7,62.5,7s39.53-1.22,62.5-7A257.95,257.95,0,0,0,504,317.92c5.77-23,7-33.94,7-62.5s-1.22-39.53-7-62.5A257.95,257.95,0,0,0,318.07,7c-23-5.76-33.94-7-62.5-7S216,1.23,193.07,7A258,258,0,0,0,7.15,192.92C2,213.5.42,226.37.1,250.92-.07,263.57,0,276,.22,278.42Zm128.83,13.43c1.37-4.56,5.67-9.12,58.25-61.64C226.67,190.88,245.21,173,247.79,172a21.13,21.13,0,0,1,16.28.38c2.71,1.27,22.27,20.21,60.64,58.73,55,55.15,56.68,57,57.8,61.9a20.94,20.94,0,0,1-25.39,25.39c-4.88-1.13-6.64-2.75-53.3-49.29L255.57,221l-48.25,48.12c-46.66,46.54-48.41,48.16-53.29,49.29-13.16,3-25.46-6.31-26.35-20A29.94,29.94,0,0,1,129.05,291.85Z"/></g></g></svg>