<svg width="512" height="326" viewBox="0 0 512 326" fill="none" xmlns="http://www.w3.org/2000/svg">
<path fill-rule="evenodd" clip-rule="evenodd" d="M227.917 1.47746C176.2 8.47046 121.729 36.3755 67.9173 83.4425C45.9103 102.692 7.10625 144.736 1.81725 155.062C-0.60575 159.794 -0.60575 165.91 1.81725 170.642C7.10625 180.968 45.9103 223.012 67.9173 242.262C114.044 282.607 160.084 308.632 204.917 319.7C283.27 339.045 363.075 313.196 443.917 242.287C466.071 222.855 504.743 180.938 510.017 170.642C512.44 165.91 512.44 159.794 510.017 155.062C504.743 144.766 466.071 102.849 443.917 83.4175C390.093 36.2065 335 8.18845 282.616 1.38545C268.111 -0.498547 242.211 -0.454544 227.917 1.47746ZM284.507 36.1964C295.07 38.1634 309.542 42.1305 320.026 45.9325C368.553 63.5355 422.607 104.002 467.821 156.578L473.175 162.803L466.009 171.243C462.068 175.885 451.773 186.841 443.13 195.589C410.891 228.224 379.925 251.419 345.724 268.552C273.539 304.714 207.942 298.792 133.417 249.384C102.645 228.984 71.2593 200.808 44.0133 169.126L38.6593 162.901L46.0353 154.213C62.3253 135.025 90.0953 108.493 110.917 92.2225C150.507 61.2864 194.342 40.8105 232.753 35.3115C244.782 33.5895 273.103 34.0734 284.507 36.1964ZM246.417 61.9805C198.577 66.0955 158.936 105.864 155.094 153.6C152.268 188.698 165.901 220.497 193.107 242.264C227.023 269.4 275.238 271.415 312.003 247.234C326.276 237.847 340.771 221.016 348 205.438C360.019 179.534 360.019 146.17 348 120.266C338.438 99.6595 319.11 80.3315 298.503 70.7695C289.869 66.7635 275.872 62.9345 267.538 62.2995C263.621 62.0015 259.292 61.6335 257.917 61.4815C256.542 61.3305 251.367 61.5545 246.417 61.9805ZM272.308 97.8245C291.585 102.754 307.024 115.314 315.981 133.352C334.848 171.349 313.61 217.317 272.308 227.88C230.274 238.63 188.917 206.38 188.917 162.852C188.917 119.321 230.271 87.0735 272.308 97.8245Z" fill="#F18231"/>
</svg>
