<?xml version="1.0" encoding="utf-8"?>
<!-- Generator: Adobe Illustrator 23.1.0, SVG Export Plug-In . SVG Version: 6.00 Build 0)  -->
<svg version="1.1" id="Слой_1" xmlns="http://www.w3.org/2000/svg" xmlns:xlink="http://www.w3.org/1999/xlink" x="0px" y="0px"
	 viewBox="0 0 513 300" style="enable-background:new 0 0 513 300;" xml:space="preserve">
<style type="text/css">
	.st0{fill-rule:evenodd;clip-rule:evenodd;fill:#FFFFFF;}
</style>
<path class="st0" d="M12.8,0.7C0.1,2.9-2.6,10.7,2.3,31.2c11.2,46.1,47.2,115.6,88.7,171.2c27,36.2,57.1,61.6,93,78.8
	c28.9,13.8,60.3,20.1,87.3,17.6c16.5-1.5,22.9-4.2,26.2-10.9c1.6-3.3,1.8-6.4,1.5-30.2c-0.3-26.6,0.7-40.2,3-44
	c3.2-5.1,15.5-5.2,26.1-0.1c14.4,6.9,36.8,25.9,60.2,51.1c21.1,22.7,27.4,28.6,34.2,31.8l5.8,2.7h35c33.9,0,35.2-0.1,39.7-2.2
	c21.1-9.8,5.1-39.8-53.7-100.3c-28.8-29.6-29.5-30.5-29.5-36.8c0-4.4,2.3-8.6,12.3-22.9c43.5-61.8,69.7-108.7,69.7-124.5
	c0-3.7-3.7-8.8-7.8-10.6c-3.3-1.5-8-1.7-38.2-1.7c-30.5,0-35,0.2-39.1,1.8c-7.4,2.9-11.1,7.6-19.3,25.3
	c-21.2,45.5-48.2,86.9-69.4,106.4c-12.4,11.5-21,14-25.7,7.7c-2.1-2.8-2.1-3.8-2.6-66c-0.5-60.7-0.6-63.3-2.5-67.1
	c-1.1-2.2-3.3-4.9-4.8-6c-2.8-2-3.9-2.1-52-2.1c-54.7,0-53.5-0.1-57.7,6.8c-3.5,5.8-2.2,10.9,5,19.7c5.8,7,8.8,12.3,11.8,20.7
	l2.7,7.8v52.5c0,41.9-0.3,53.1-1.4,55.7c-1.7,4.1-6.7,6-11.3,4.4c-12.4-4.3-33.6-30.9-54.1-67.7C123,77.3,113.7,56.4,99.5,19.1
	c-1.5-3.9-4.3-9-6.4-11.4C86.8,0.3,86.6,0.2,49.9,0C32-0.1,15.3,0.2,12.8,0.7z"/>
</svg>
