<?xml version="1.0" encoding="utf-8"?>
<!-- Generator: Adobe Illustrator 23.1.0, SVG Export Plug-In . SVG Version: 6.00 Build 0)  -->
<svg version="1.1" id="Слой_1" xmlns="http://www.w3.org/2000/svg" xmlns:xlink="http://www.w3.org/1999/xlink" x="0px" y="0px"
	 viewBox="0 0 512 512" style="enable-background:new 0 0 512 512;" xml:space="preserve">
<style type="text/css">
	.st0{fill-rule:evenodd;clip-rule:evenodd;fill:#FFFFFF;}
</style>
<path class="st0" d="M232.8,0.2c-9.2,0.9-29.8,4.5-39.5,6.9C102.5,30,30.2,102.2,7.4,193.1c-4.5,18.1-6.7,33.9-7.3,54.3
	c-1.6,54.3,12.2,103.4,42,149.1l6.1,9.4l-15.8,47c-8.7,25.8-15.6,47.2-15.3,47.4c0.2,0.2,22.3-6.6,49.1-15.2l48.7-15.6l8.2,4.9
	c18.8,11.2,32.5,17.6,51.2,24c45.1,15.3,97.2,17.4,144,5.6c90.8-22.8,163.1-95.1,185.9-185.9c5.8-23,7-33.9,7-62.5s-1.2-39.5-7-62.5
	C481.5,102.3,409.1,29.9,318.3,7.1c-20.6-5.2-33.5-6.7-58-7.1C247.7-0.1,235.3,0,232.8,0.2z M168.6,117.5
	c11.3,1.3,10.3-0.2,28.2,42.9c13.3,32,13.8,34.3,9.5,41.5c-1.4,2.3-6.3,8.5-11.1,13.7c-10.2,11.3-11.9,14.1-11.1,18.7
	c1.2,7.6,22.9,36.7,38.8,51.9c15.7,15.1,29.4,24.8,48,34c15.5,7.7,22.5,9.9,27.6,8.5c2.2-0.6,4.8-1.9,5.9-2.9
	c2.6-2.5,10.2-11.9,17.5-22c7.4-10.2,10.8-12.5,17.1-11.9c4.8,0.5,22.1,8.2,52.1,23.2c13.6,6.8,17,8.9,17.9,11.2
	c2.7,6.8-1.8,30.8-7.4,40.5c-9.8,16.7-39,31.7-61.5,31.7c-16.3,0-46.3-8.5-77.4-22c-44.2-19.2-85.6-55.7-122.9-108.5
	c-22.7-32.2-31.9-55.1-31.9-80.2c0-23.8,6.6-41.1,21.7-57.3c8-8.5,13.3-11.5,23-12.9C160.3,116.5,160.3,116.5,168.6,117.5z"/>
</svg>
