<?xml version="1.0" encoding="utf-8"?>
<!-- Generator: Adobe Illustrator 23.1.0, SVG Export Plug-In . SVG Version: 6.00 Build 0)  -->
<svg version="1.1" id="Слой_1" xmlns="http://www.w3.org/2000/svg" xmlns:xlink="http://www.w3.org/1999/xlink" x="0px" y="0px"
	 viewBox="0 0 512 360" style="enable-background:new 0 0 512 360;" xml:space="preserve">
<style type="text/css">
	.st0{fill-rule:evenodd;clip-rule:evenodd;fill:#FFFFFF;}
</style>
<path class="st0" d="M102.9,0.2C42.8,4.7,14.4,21.9,5,59.6c-4.2,17-4.3,19.3-4.8,101c-0.5,83.5,0,99.6,3.8,117.8
	c9.8,47.8,34.5,69.7,88.9,78.8c9.6,1.6,22.4,1.8,156.5,2.1c148.4,0.4,159.7,0.1,180.8-3.4c11.6-1.9,28.3-7.4,36.4-12
	c24.8-13.9,37.9-37.7,43.4-78.9c1.9-14.4,1.9-170.4,0-185.4c-3.2-25.2-9.7-40.7-22.1-53.1c-13.3-13.2-29.6-19.8-61.1-24.7
	c-9.3-1.4-27.7-1.6-165-1.8C176.9-0.1,105.3,0,102.9,0.2z M273,133.9c30.1,15.6,56,29.3,57.6,30.5c3.8,2.7,6.2,7.8,6.2,13.1
	c0,5.2-2,9.2-6.2,12.4c-4.9,3.6-109.4,57.9-113.8,59c-8.5,2.3-17-3.4-19-12.6c-0.8-3.7-1-22.2-0.8-62.2c0.3-55.4,0.4-57.1,2.4-60.5
	c3.1-5.3,7.8-8,13.8-8C218,105.6,222.4,107.7,273,133.9z"/>
</svg>
