<svg width="512" height="360" viewBox="0 0 512 360" fill="none" xmlns="http://www.w3.org/2000/svg">
<g clip-path="url(#clip0_418_81)">
<path fill-rule="evenodd" clip-rule="evenodd" d="M102.901 0.200046C42.8007 4.70005 14.4007 21.9 5.0007 59.6C0.800695 76.6 0.700695 78.9001 0.200695 160.6C-0.299305 244.1 0.200695 260.2 4.0007 278.4C13.8007 326.2 38.5007 348.1 92.9007 357.2C102.501 358.8 115.301 359 249.401 359.3C397.801 359.7 409.101 359.4 430.201 355.9C441.801 354 458.501 348.5 466.601 343.9C491.401 330 504.501 306.2 510.001 265C511.901 250.6 511.901 94.6 510.001 79.6C506.801 54.4 500.301 38.9 487.901 26.5C474.601 13.3 458.301 6.70005 426.801 1.80005C417.501 0.400046 399.101 0.200046 261.801 4.59142e-05C176.901 -0.0999541 105.301 4.59105e-05 102.901 0.200046ZM273.001 133.9C303.101 149.5 329.001 163.2 330.601 164.4C334.401 167.1 336.801 172.2 336.801 177.5C336.801 182.7 334.801 186.7 330.601 189.9C325.701 193.5 221.201 247.8 216.801 248.9C208.301 251.2 199.801 245.5 197.801 236.3C197.001 232.6 196.801 214.1 197.001 174.1C197.301 118.7 197.401 117 199.401 113.6C202.501 108.3 207.201 105.6 213.201 105.6C218.001 105.6 222.401 107.7 273.001 133.9Z" fill="#B2B2B2"/>
</g>
<defs>
<clipPath id="clip0_418_81">
<rect width="512" height="360" fill="white"/>
</clipPath>
</defs>
</svg>
