<svg width="480" height="480" viewBox="0 0 480 480" fill="none" xmlns="http://www.w3.org/2000/svg">
<path fill-rule="evenodd" clip-rule="evenodd" d="M179.562 1.41121C152.651 5.07621 123.633 15.3722 99.9701 29.6512C73.2711 45.7622 47.2981 71.5632 30.2451 98.9132C15.7641 122.138 5.15513 152.186 1.44613 180.484C-0.476867 195.15 -0.482865 220.546 1.43313 235.059C7.45613 280.689 27.9121 321.903 60.9071 354.891C78.8731 372.853 94.7921 384.073 118.441 395.442C175.754 422.993 241.807 422.62 299.441 394.417C312.728 387.916 328.128 378.211 337.933 370.16L343.424 365.651L398.259 420.817C428.418 451.158 454.521 476.853 456.267 477.917C460.507 480.503 467.158 480.428 471.937 477.742C479.396 473.55 482.201 463.177 477.854 455.86C476.711 453.935 451.002 427.835 420.724 397.86L365.673 343.36L370.212 337.86C398.776 303.246 416.033 253.883 415.91 207.149C415.764 152.183 393.957 99.8202 354.972 60.8262C321.984 27.8312 280.77 7.37521 235.14 1.35221C221.297 -0.475794 193.197 -0.444794 179.562 1.41121ZM223.441 32.9002C298.759 40.0132 360.075 92.4672 378.28 165.36C386.537 198.42 385.233 231.312 374.379 263.755C346.195 347.992 259.085 397.992 172.127 379.844C119.211 368.8 74.0621 333.761 50.3831 285.36C14.1241 211.246 33.7781 122.568 97.8941 70.9952C133.325 42.4962 178.831 28.6882 223.441 32.9002ZM199.863 98.1342C198.007 99.3842 195.465 101.926 194.215 103.782L191.941 107.156V149.508V191.86H149.589H107.237L103.863 194.134C93.2231 201.304 93.2231 214.416 103.863 221.586L107.237 223.86H149.589H191.941V266.212V308.564L194.215 311.938C201.385 322.578 214.497 322.578 221.667 311.938L223.941 308.564V266.212V223.86H266.293H308.645L312.019 221.586C322.659 214.416 322.659 201.304 312.019 194.134L308.645 191.86H266.293H223.941V149.508V107.156L221.667 103.782C216.36 95.9062 206.831 93.4382 199.863 98.1342Z" fill="black"/>
</svg>
